<?xml version="1.0" encoding="UTF-8"?>
<svg width="42px" height="42px" viewBox="0 0 42 42" version="1.1" xmlns="http://www.w3.org/2000/svg" xmlns:xlink="http://www.w3.org/1999/xlink">
    <!-- Generator: Sketch 51.2 (57519) - http://www.bohemiancoding.com/sketch -->
    <title>Shape Copy</title>
    <desc>Created with Sketch.</desc>
    <defs></defs>
    <g id="Page-1" stroke="none" stroke-width="1" fill="none" fill-rule="evenodd">
        <g id="180608-Positive-Impact-Permalink-Community-v1" transform="translate(-428.000000, -2348.000000)" fill="#D6282D" fill-rule="nonzero">
            <path d="M449.036272,2376.07427 C449.360441,2376.07427 449.68461,2375.96612 450.008779,2375.69573 C452.06185,2373.64081 454.168948,2371.5318 456.222018,2369.47687 C457.464666,2368.2331 455.57368,2366.3404 454.331033,2367.58418 C452.980328,2368.9361 451.683653,2370.23395 450.332948,2371.58588 C450.332948,2364.17732 450.332948,2356.76876 450.332948,2349.30613 C450.332948,2348.98167 450.224892,2348.65721 450.062808,2348.49498 C450.062808,2348.49498 450.062808,2348.49498 450.062808,2348.49498 C449.846695,2348.17051 449.468498,2347.9542 448.982244,2348.00828 C441.580386,2348.17051 434.718809,2351.90183 430.882809,2358.337 C423.859148,2370.01764 430.288499,2385.75407 443.471372,2389.26908 C456.816328,2392.89224 469.729059,2382.56352 469.9992,2368.9361 C470.053228,2367.20564 467.35182,2367.20564 467.297792,2368.9361 C467.189736,2376.39874 462.759426,2383.21245 455.789793,2386.02445 C449.036272,2388.7283 441.14816,2387.10599 436.015485,2381.96867 C430.882809,2376.77728 429.261964,2368.88203 431.909344,2362.12239 C434.502696,2355.57907 440.715935,2351.2529 447.577512,2350.65806 C447.577512,2357.57992 447.577512,2364.44771 447.577512,2371.36957 C446.226808,2370.01764 444.930132,2368.71979 443.579428,2367.36787 C442.33678,2366.1241 440.445794,2368.07087 441.688442,2369.26056 C443.79554,2371.36957 445.902639,2373.47858 448.063765,2375.64166 C448.387934,2375.96612 448.712103,2376.07427 449.036272,2376.07427 Z" id="Shape-Copy"></path>
        </g>
    </g>
</svg>