<?xml version="1.0" encoding="UTF-8"?>
<svg width="65px" height="65px" viewBox="0 0 65 65" version="1.1" xmlns="http://www.w3.org/2000/svg" xmlns:xlink="http://www.w3.org/1999/xlink">
    <!-- Generator: Sketch 51 (57462) - http://www.bohemiancoding.com/sketch -->
    <title>Group 6</title>
    <desc>Created with Sketch.</desc>
    <defs></defs>
    <g id="Symbols" stroke="none" stroke-width="1" fill="none" fill-rule="evenodd">
        <g id="not-super-footer" transform="translate(-1219.000000, -494.000000)">
            <g id="Super-Footer-contact" transform="translate(1109.000000, 494.000000)">
                <g id="Group-6" transform="translate(110.000000, 0.000000)">
                    <circle id="Oval-2" fill="#5B6770" cx="32.5" cy="32.5" r="32.5"></circle>
                    <path d="M32.2442016,22 L17.0015202,22.0363544 C17.0004185,22.0363523 16.9993169,22.0363523 16.9982152,22.0363544 C16.9436972,22.0265498 16.8883482,22.0221221 16.8329649,22.0231352 C16.6085688,22.0266365 16.3947547,22.1191378 16.2385619,22.280289 C16.0823691,22.4414401 15.9965928,22.6580397 16.0001037,22.8824356 L16.0001037,42.1539188 C16.0001504,42.6211772 16.3789265,42.9999533 16.8461849,43 L47.6289991,43 C48.0962575,42.9999533 48.4750336,42.6211772 48.4750803,42.1539188 L48.4750803,22.9915023 C48.511517,22.7485802 48.4405926,22.5018137 48.2807327,22.3153102 C48.1208727,22.1288066 47.8878568,22.0209756 47.6422199,22.0198305 L32.2442016,22 Z M32.2442016,23.6921625 L32.2475064,23.6921625 L44.7007661,23.7086881 L32.2442016,31.5018881 L19.7909442,23.7252121 L32.2442016,23.6921625 Z M46.7829179,24.3994339 L46.7829179,41.3078375 L17.6922661,41.3078375 L17.6922661,24.4060435 L31.7980274,33.2171858 C32.072105,33.3881449 32.4196046,33.3881449 32.6936822,33.2171858 L46.7829179,24.3994339 Z" id="Shape-Copy" fill="#FFFFFF" fill-rule="nonzero"></path>
                </g>
            </g>
        </g>
    </g>
</svg>