<?xml version="1.0" encoding="UTF-8"?>
<svg width="38px" height="36px" viewBox="0 0 38 36" version="1.1" xmlns="http://www.w3.org/2000/svg" xmlns:xlink="http://www.w3.org/1999/xlink">
    <!-- Generator: Sketch 51 (57462) - http://www.bohemiancoding.com/sketch -->
    <title>icon-facebook</title>
    <desc>Created with Sketch.</desc>
    <defs></defs>
    <g id="Page-1" stroke="none" stroke-width="1" fill="none" fill-rule="evenodd">
        <g id="180608-Home-Tablet-v2" transform="translate(-931.000000, -5409.000000)">
            <g id="Footer-social" transform="translate(931.000000, 5409.000000)">
                <g id="icon-facebook">
                    <ellipse id="Oval" fill="#FFFFFF" fill-rule="nonzero" cx="18.7713214" cy="17.784" rx="15.0893929" ry="14.2952143"></ellipse>
                    <path d="M18.7706429,0 C8.40207143,0 0,7.96371429 0,17.7852857 C0,27.6081429 8.40275,35.5692857 18.7706429,35.5692857 C29.1385357,35.5692857 37.5412857,27.6075 37.5412857,17.7852857 C37.5412857,7.96371429 29.1378571,0 18.7706429,0 Z M23.2831429,10.1841429 L23.2675357,11.7642857 L22.0664643,11.7925714 C20.7547857,11.8221429 20.7161071,11.8324286 20.4277143,12.1975714 C20.3177857,12.3351429 20.3042143,12.4386429 20.28725,13.473 L20.2702857,14.5941429 L22.9486071,14.5941429 L22.9486071,17.7859286 L20.27775,17.7859286 L20.27775,26.9659286 L16.2755357,26.9659286 L16.2755357,17.7859286 L14.2432143,17.7859286 L14.2751071,14.5941429 L16.2660357,14.5941429 L16.2891071,13.0962857 C16.3115,11.7867857 16.3298214,11.547 16.4404286,11.1709286 C16.8021071,9.91607143 17.5397143,9.18578571 18.8018571,8.829 C19.4329286,8.65157143 20.064,8.60271429 21.7441429,8.60271429 L23.2980714,8.60271429 L23.2831429,10.1841429 Z" id="Shape" fill="#ACACAC"></path>
                </g>
            </g>
        </g>
    </g>
</svg>