<?xml version="1.0" encoding="UTF-8"?>
<svg width="38px" height="36px" viewBox="0 0 38 36" version="1.1" xmlns="http://www.w3.org/2000/svg" xmlns:xlink="http://www.w3.org/1999/xlink">
    <!-- Generator: Sketch 51 (57462) - http://www.bohemiancoding.com/sketch -->
    <title>icon-twitter</title>
    <desc>Created with Sketch.</desc>
    <defs></defs>
    <g id="Page-1" stroke="none" stroke-width="1" fill="none" fill-rule="evenodd">
        <g id="180608-Home-Tablet-v2" transform="translate(-1032.000000, -5409.000000)">
            <g id="Footer-social" transform="translate(931.000000, 5409.000000)">
                <g id="icon-twitter" transform="translate(101.000000, 0.000000)">
                    <ellipse id="Oval" fill="#FFFFFF" fill-rule="nonzero" cx="19.0257857" cy="18.1915714" rx="15.0893929" ry="14.2952143"></ellipse>
                    <path d="M18.7713214,0 C8.40275,0 0,7.96371429 0,17.7859286 C0,27.6075 8.40342857,35.5692857 18.7713214,35.5692857 C29.1385357,35.5692857 37.5419643,27.6075 37.5419643,17.7859286 C37.5419643,7.96307143 29.1378571,0 18.7713214,0 Z M26.3122857,14.76 C26.3204286,14.9181429 26.3245,15.0775714 26.3245,15.237 C26.3245,20.1137143 22.4105,25.7374286 15.2461429,25.7374286 C13.0502857,25.7374286 11.0064286,25.1267143 9.28828571,24.0698571 C9.59635714,24.102 9.90375,24.1238571 10.2179286,24.1238571 C12.0419286,24.1238571 13.7220714,23.5324286 15.0513929,22.5443571 C13.3481786,22.5122143 11.9096071,21.4463571 11.4169643,19.9793571 C11.65175,20.0262857 11.89875,20.0475 12.1471071,20.0475 C12.502,20.0475 12.8480714,20.0025 13.17175,19.9189286 C11.3918571,19.5795 10.0489643,18.0912857 10.0489643,16.3022143 L10.0489643,16.2572143 C10.5714643,16.5349286 11.1740357,16.7007857 11.8166429,16.7181429 C10.7716429,16.056 10.0795,14.9245714 10.0795,13.6452857 C10.0795,12.9702857 10.2735714,12.3351429 10.6074286,11.7912857 C12.5243929,14.0252143 15.3940714,15.4954286 18.6301786,15.6471429 C18.5609643,15.3771429 18.5283929,15.0955714 18.5283929,14.8075714 C18.5283929,12.7697143 20.2696071,11.1162857 22.4193214,11.1162857 C23.5376071,11.1162857 24.5500357,11.5662857 25.2611786,12.285 C26.1501071,12.123 26.9813571,11.8144286 27.7311786,11.3914286 C27.4427857,12.2528571 26.8252857,12.9754286 26.0211786,13.4312143 C26.8083214,13.3412143 27.5561071,13.1419286 28.2557143,12.8500714 C27.7318571,13.5919286 27.0736429,14.2386429 26.3136429,14.7593571 L26.3122857,14.76 Z" id="Shape" fill="#ACACAC"></path>
                </g>
            </g>
        </g>
    </g>
</svg>