<?xml version="1.0" encoding="UTF-8"?>
<svg width="37px" height="37px" viewBox="0 0 37 37" version="1.1" xmlns="http://www.w3.org/2000/svg" xmlns:xlink="http://www.w3.org/1999/xlink">
    <!-- Generator: Sketch 51.2 (57519) - http://www.bohemiancoding.com/sketch -->
    <title>Group 3</title>
    <desc>Created with Sketch.</desc>
    <defs></defs>
    <g id="Page-1" stroke="none" stroke-width="1" fill="none" fill-rule="evenodd">
        <g id="Group-3" fill-rule="nonzero">
            <g id="icon-social-insta-blue-circle" fill="#5A89B4">
                <g id="icon-social-fb-blue-circle">
                    <circle id="Oval-4" cx="18.5" cy="18.5" r="18.5"></circle>
                </g>
            </g>
            <g id="Group-2" transform="translate(10.000000, 10.000000)" fill="#FFFFFF">
                <g id="Group">
                    <path d="M4.34209663,0 C1.9484473,0 0,1.94843588 0,4.34209663 L0,12.5692385 C0,14.9628993 1.9484473,16.9113352 4.34209663,16.9113352 L12.5692271,16.9113352 C14.9628764,16.9113352 16.9113237,14.9628993 16.9113237,12.5692385 L16.9113237,4.34209663 C16.9113237,1.94843588 14.9628764,0 12.5692271,0 L4.34209663,0 Z M4.34209663,1.37118841 L12.5692271,1.37118841 C14.226955,1.37118841 15.5401353,2.68437555 15.5401353,4.34209663 L15.5401353,12.5692385 C15.5401353,14.2269596 14.226955,15.5401467 12.5692271,15.5401467 L4.34209663,15.5401467 C2.68436869,15.5401467 1.37118841,14.2269596 1.37118841,12.5692385 L1.37118841,4.34209663 C1.37118841,2.68437555 2.68436869,1.37118841 4.34209663,1.37118841 Z M13.0262899,2.74237682 C12.5214183,2.74237682 12.1121643,3.15163085 12.1121643,3.65650243 C12.1121643,4.16135115 12.5214183,4.57062803 13.0262899,4.57062803 C13.5311386,4.57062803 13.9404155,4.16135115 13.9404155,3.65650243 C13.9404155,3.15163085 13.5311386,2.74237682 13.0262899,2.74237682 Z M8.45566186,4.34209663 C6.19191435,4.34209663 4.34209663,6.19194406 4.34209663,8.45565044 C4.34209663,10.7193682 6.19191435,12.5692385 8.45566186,12.5692385 C10.7194094,12.5692385 12.5692271,10.7193682 12.5692271,8.45565044 C12.5692271,6.19194406 10.7194094,4.34209663 8.45566186,4.34209663 Z M8.45566186,5.71328504 C9.97835974,5.71328504 11.1980387,6.93297313 11.1980387,8.45565044 C11.1980387,9.97833231 9.97835974,11.1980501 8.45566186,11.1980501 C6.93296399,11.1980501 5.71328504,9.97833231 5.71328504,8.45565044 C5.71328504,6.93297313 6.93296399,5.71328504 8.45566186,5.71328504 Z" id="Shape"></path>
                </g>
            </g>
        </g>
    </g>
</svg>