<?xml version="1.0" encoding="UTF-8"?>
<svg width="37px" height="37px" viewBox="0 0 37 37" version="1.1" xmlns="http://www.w3.org/2000/svg" xmlns:xlink="http://www.w3.org/1999/xlink">
    <!-- Generator: Sketch 51.1 (57501) - http://www.bohemiancoding.com/sketch -->
    <title>Group 3</title>
    <desc>Created with Sketch.</desc>
    <defs></defs>
    <g id="Symbols" stroke="none" stroke-width="1" fill="none" fill-rule="evenodd">
        <g id="buttons-social" transform="translate(-95.000000, -1.000000)">
            <g id="Group-3" transform="translate(95.000000, 1.000000)">
                <circle id="Oval-4" fill="#5A89B4" cx="18.5" cy="18.5" r="18.5"></circle>
                <path d="M18.4459832,10.8881002 L7.13330603,10.9141298 C7.13248842,10.9141283 7.1316708,10.9141283 7.13085319,10.9141298 C7.09039152,10.9071097 7.04931309,10.9039395 7.00820918,10.9046649 C6.84166885,10.9071718 6.68298227,10.9734025 6.56706049,11.0887864 C6.45113871,11.2041702 6.38747798,11.3592549 6.39008368,11.5199219 L6.39008368,25.3182559 C6.39011836,25.6528118 6.67123502,25.9240145 7.01802069,25.924048 L29.8641348,25.924048 C30.2109205,25.9240145 30.4920372,25.6528118 30.4920718,25.3182559 L30.4920718,11.5980133 C30.5191141,11.4240817 30.4664761,11.2473975 30.3478326,11.1138614 C30.2291892,10.9803254 30.0562515,10.9031186 29.873947,10.9022987 L18.4459832,10.8881002 Z M18.4459832,12.0996843 L18.4484359,12.0996843 L27.690885,12.1115166 L18.4459832,17.6914285 L9.20353586,12.1233477 L18.4459832,12.0996843 Z M29.2361978,12.6060889 L29.2361978,24.7124639 L7.6459577,24.7124639 L7.6459577,12.6108213 L18.1148456,18.9195773 C18.3182581,19.0419836 18.5761623,19.0419836 18.7795747,18.9195773 L29.2361978,12.6060889 Z" id="Shape" fill="#FFFFFF" fill-rule="nonzero"></path>
                <path d="M18.4459832,10.8881002 L7.13330603,10.9141298 C7.13248842,10.9141283 7.1316708,10.9141283 7.13085319,10.9141298 C7.09039152,10.9071097 7.04931309,10.9039395 7.00820918,10.9046649 C6.84166885,10.9071718 6.68298227,10.9734025 6.56706049,11.0887864 C6.45113871,11.2041702 6.38747798,11.3592549 6.39008368,11.5199219 L6.39008368,25.3182559 C6.39011836,25.6528118 6.67123502,25.9240145 7.01802069,25.924048 L29.8641348,25.924048 C30.2109205,25.9240145 30.4920372,25.6528118 30.4920718,25.3182559 L30.4920718,11.5980133 C30.5191141,11.4240817 30.4664761,11.2473975 30.3478326,11.1138614 C30.2291892,10.9803254 30.0562515,10.9031186 29.873947,10.9022987 L18.4459832,10.8881002 Z M18.4459832,12.0996843 L18.4484359,12.0996843 L27.690885,12.1115166 L18.4459832,17.6914285 L9.20353586,12.1233477 L18.4459832,12.0996843 Z M29.2361978,12.6060889 L29.2361978,24.7124639 L7.6459577,24.7124639 L7.6459577,12.6108213 L18.1148456,18.9195773 C18.3182581,19.0419836 18.5761623,19.0419836 18.7795747,18.9195773 L29.2361978,12.6060889 Z" id="Shape-Copy" fill="#FFFFFF" fill-rule="nonzero"></path>
            </g>
        </g>
    </g>
</svg>