<?xml version="1.0" encoding="UTF-8"?>
<svg width="37px" height="37px" viewBox="0 0 37 37" version="1.1" xmlns="http://www.w3.org/2000/svg" xmlns:xlink="http://www.w3.org/1999/xlink">
    <!-- Generator: Sketch 51.1 (57501) - http://www.bohemiancoding.com/sketch -->
    <title>Group</title>
    <desc>Created with Sketch.</desc>
    <defs></defs>
    <g id="Symbols" stroke="none" stroke-width="1" fill="none" fill-rule="evenodd">
        <g id="buttons-social">
            <g id="Group">
                <circle id="Oval-4" fill="#5A89B4" cx="18.5" cy="18.5" r="18.5"></circle>
                <path d="M26.4616907,14.8461429 C26.4702887,15.0130714 26.4745876,15.1813571 26.4745876,15.3496429 C26.4745876,20.4972857 22.3418454,26.4334286 14.7770928,26.4334286 C12.4585155,26.4334286 10.300433,25.7887857 8.48626804,24.6732143 C8.8115567,24.7071429 9.13612887,24.7302143 9.46786598,24.7302143 C11.3938041,24.7302143 13.1678454,24.1059286 14.5714588,23.0629643 C12.7730567,23.0290357 11.2540876,21.9039643 10.7339124,20.3554643 C10.9818196,20.405 11.2426237,20.4273929 11.5048608,20.4273929 C11.8795876,20.4273929 12.245,20.3798929 12.586768,20.2916786 C10.7074021,19.9333929 9.28945876,18.3625 9.28945876,16.4740357 L9.28945876,16.4265357 C9.84115979,16.7196786 10.4774072,16.89475 11.1559278,16.9130714 C10.0525258,16.2141429 9.32170103,15.0198571 9.32170103,13.6695 C9.32170103,12.957 9.52661856,12.2865714 9.87913402,11.7125 C11.903232,14.0705357 14.9332887,15.6224286 18.3502526,15.7825714 C18.2771701,15.4975714 18.2427784,15.2003571 18.2427784,14.8963571 C18.2427784,12.7452857 20.0813041,11 22.3511598,11 C23.5319433,11 24.6009536,11.475 25.3518402,12.2336429 C26.2904485,12.0626429 27.1681546,11.7369286 27.9598814,11.2904286 C27.6553711,12.1997143 27.0033608,12.9624286 26.1543144,13.4435357 C26.9854485,13.3485357 27.7750258,13.1381786 28.513732,12.8301071 C27.9605979,13.6131786 27.2655979,14.2958214 26.4631237,14.8454643 L26.4616907,14.8461429 Z" id="Path" fill="#FFFFFF"></path>
            </g>
        </g>
    </g>
</svg>