<?xml version="1.0" encoding="UTF-8"?>
<svg width="38px" height="36px" viewBox="0 0 38 36" version="1.1" xmlns="http://www.w3.org/2000/svg" xmlns:xlink="http://www.w3.org/1999/xlink">
    <!-- Generator: Sketch 51 (57462) - http://www.bohemiancoding.com/sketch -->
    <title>icon-linkedin</title>
    <desc>Created with Sketch.</desc>
    <defs></defs>
    <g id="Page-1" stroke="none" stroke-width="1" fill="none" fill-rule="evenodd">
        <g id="180608-Home-Tablet-v2" transform="translate(-982.000000, -5409.000000)" fill-rule="nonzero">
            <g id="Footer-social" transform="translate(931.000000, 5409.000000)">
                <g id="icon-linkedin" transform="translate(51.000000, 0.000000)">
                    <ellipse id="Oval" fill="#FFFFFF" cx="18.6233929" cy="17.7846429" rx="15.0893929" ry="14.2952143"></ellipse>
                    <g id="Group">
                        <path d="M18.7713214,0 C8.40275,0 0,7.96371429 0,17.7859286 C0,27.6075 8.40342857,35.5692857 18.7713214,35.5692857 C29.1385357,35.5692857 37.5419643,27.6075 37.5419643,17.7859286 C37.5419643,7.96307143 29.1378571,0 18.7713214,0 Z M14.7473929,24.021 L11.58525,24.021 L11.58525,15.0145714 L14.7473929,15.0145714 L14.7473929,24.021 Z M13.1663214,13.7847857 L13.1459643,13.7847857 C12.0853571,13.7847857 11.3986429,13.0924286 11.3986429,12.2277857 C11.3986429,11.3451429 12.1043571,10.6720714 13.1873571,10.6720714 C14.2703571,10.6720714 14.934,11.3451429 14.9543571,12.2277857 C14.9543571,13.0930714 14.269,13.7854286 13.167,13.7854286 L13.1663214,13.7847857 Z M26.1433214,24.021 L22.9832143,24.021 L22.9832143,19.2021429 C22.9832143,17.9922857 22.5258571,17.1662143 21.3831429,17.1662143 C20.5098214,17.1662143 19.9893571,17.7222857 19.7613571,18.2603571 C19.6772143,18.4532143 19.6561786,18.7206429 19.6561786,18.99 L19.6561786,24.021 L16.4940357,24.021 C16.4940357,24.021 16.5374643,15.8586429 16.4940357,15.0145714 L19.6561786,15.0145714 L19.6561786,16.29 C20.0768929,15.6773571 20.8260357,14.8030714 22.5048214,14.8030714 C24.5846429,14.8030714 26.1433214,16.0887857 26.1433214,18.855 L26.1433214,24.021 Z" id="Shape" fill="#ACACAC"></path>
                        <path d="M19.6561786,16.3202143 L19.6561786,16.2906429 C19.6493929,16.3022143 19.64125,16.3112143 19.6358214,16.3208571 L19.6561786,16.3208571 L19.6561786,16.3202143 Z" id="Shape" fill="#231F20"></path>
                    </g>
                </g>
            </g>
        </g>
    </g>
</svg>