<?xml version="1.0" encoding="UTF-8"?>
<svg width="65px" height="65px" viewBox="0 0 65 65" version="1.1" xmlns="http://www.w3.org/2000/svg" xmlns:xlink="http://www.w3.org/1999/xlink">
    <!-- Generator: Sketch 51 (57462) - http://www.bohemiancoding.com/sketch -->
    <title>Group 7</title>
    <desc>Created with Sketch.</desc>
    <defs></defs>
    <g id="Symbols" stroke="none" stroke-width="1" fill="none" fill-rule="evenodd">
        <g id="not-super-footer" transform="translate(-1219.000000, -607.000000)">
            <g id="Super-Footer-contact" transform="translate(1109.000000, 494.000000)">
                <g id="Group-7" transform="translate(110.000000, 113.000000)">
                    <circle id="Oval-2" fill="#5B6770" cx="32.5" cy="32.5" r="32.5"></circle>
                    <g id="Group-2" transform="translate(21.000000, 14.000000)" fill="#FFFFFF" fill-rule="nonzero">
                        <g id="Group">
                            <path d="M20,0 L4,0 C1.79104478,0 0,1.79032258 0,3.9983871 L0,6.02741935 L0,27.1532258 L0,33.0016129 C0,35.2096774 1.79104478,37 4,37 L20,37 C22.2089552,37 24,35.2096774 24,33.0016129 L24,27.1532258 L24,6.02741935 L24,3.9983871 C24,1.79032258 22.2089552,0 20,0 Z M4,2.38709677 L20,2.38709677 C20.8955224,2.38709677 21.6119403,3.10322581 21.6119403,3.9983871 L21.6119403,4.83387097 L2.3880597,4.83387097 L2.3880597,3.9983871 C2.3880597,3.10322581 3.10447761,2.38709677 4,2.38709677 Z M21.6119403,25.9596774 L2.3880597,25.9596774 L2.3880597,7.22096774 L21.6119403,7.22096774 L21.6119403,25.9596774 Z M20,34.6725806 L4,34.6725806 C3.10447761,34.6725806 2.3880597,33.9564516 2.3880597,33.0612903 L2.3880597,28.4064516 L21.6119403,28.4064516 L21.6119403,33.0612903 C21.6119403,33.9564516 20.8955224,34.6725806 20,34.6725806 Z" id="Shape" stroke="#5B6770"></path>
                            <path d="M12.4,29.7608696 C11.3032258,29.7608696 10.4,30.6690042 10.4,31.7717391 C10.4,32.8744741 11.3032258,33.7826087 12.4,33.7826087 C13.4967742,33.7826087 14.4,32.8744741 14.4,31.7717391 C14.4,30.6690042 13.4967742,29.7608696 12.4,29.7608696 Z" id="Shape"></path>
                        </g>
                    </g>
                </g>
            </g>
        </g>
    </g>
</svg>