<?xml version="1.0" encoding="UTF-8"?>
<svg width="37px" height="37px" viewBox="0 0 37 37" version="1.1" xmlns="http://www.w3.org/2000/svg" xmlns:xlink="http://www.w3.org/1999/xlink">
    <!-- Generator: Sketch 51.1 (57501) - http://www.bohemiancoding.com/sketch -->
    <title>Group 2</title>
    <desc>Created with Sketch.</desc>
    <defs></defs>
    <g id="Symbols" stroke="none" stroke-width="1" fill="none" fill-rule="evenodd">
        <g id="buttons-social" transform="translate(-46.000000, -1.000000)">
            <g id="Group-2" transform="translate(46.000000, 1.000000)">
                <circle id="Oval-4" fill="#5A89B4" cx="18.5" cy="18.5" r="18.5"></circle>
                <path d="M15.1828273,25.0905357 L11.8439613,25.0905357 L11.8439613,15.58375 L15.1828273,15.58375 L15.1828273,25.0905357 Z M13.5133943,14.2856429 L13.4918995,14.2856429 C12.372018,14.2856429 11.6469253,13.5548214 11.6469253,12.6421429 C11.6469253,11.7104643 12.3920799,11 13.5356057,11 C14.6791314,11 15.3798634,11.7104643 15.4013582,12.6421429 C15.4013582,13.5555 14.6776985,14.2863214 13.5141108,14.2863214 L13.5133943,14.2856429 Z M27.2156418,25.0905357 L23.8789253,25.0905357 L23.8789253,20.0039643 C23.8789253,18.7268929 23.3960077,17.8549286 22.1894304,17.8549286 C21.2673015,17.8549286 20.71775,18.4418929 20.4770077,19.0098571 C20.3881624,19.2134286 20.365951,19.4957143 20.365951,19.7800357 L20.365951,25.0905357 L17.0270851,25.0905357 C17.0270851,25.0905357 17.0729407,16.4747143 17.0270851,15.58375 L20.365951,15.58375 L20.365951,16.9300357 C20.8101778,16.2833571 21.6011881,15.3605 23.3737964,15.3605 C25.5698531,15.3605 27.2156418,16.7176429 27.2156418,19.6375357 L27.2156418,25.0905357 Z" id="Shape" fill="#FFFFFF" fill-rule="nonzero"></path>
                <path d="M19.4527784,16.0323704 L19.4527784,16 C19.4456134,16.0126667 19.4370155,16.0225185 19.4312835,16.0330741 L19.4527784,16.0330741 L19.4527784,16.0323704 Z" id="Shape" fill="#231F20" fill-rule="nonzero"></path>
            </g>
        </g>
    </g>
</svg>