<?xml version="1.0" encoding="UTF-8"?>
<svg width="47px" height="48px" viewBox="0 0 47 48" version="1.1" xmlns="http://www.w3.org/2000/svg" xmlns:xlink="http://www.w3.org/1999/xlink">
    <!-- Generator: Sketch 51 (57462) - http://www.bohemiancoding.com/sketch -->
    <title>Group 3</title>
    <desc>Created with Sketch.</desc>
    <defs></defs>
    <g id="Page-1" stroke="none" stroke-width="1" fill="none" fill-rule="evenodd">
        <g id="180608-NAV-Desktop-v1" transform="translate(-46.000000, -27.000000)" fill="#FFFFFF" fill-rule="nonzero">
            <g id="Group-3" transform="translate(46.000000, 27.000000)">
                <path d="M18.0507827,37.6428634 C17.721385,34.7910481 17.440787,31.9269932 16.8856909,29.2526513 C16.3366948,26.0887274 15.7937986,25.4828697 14.6592066,25.0544854 C12.2741234,24.1609982 9.66334175,25.9418528 8.3640509,26.6639863 C7.26605863,27.2759639 5.92406808,26.9026576 4.97857474,25.7031816 C3.8957534,24.2809427 4.05901974,22.2678274 5.35677208,21.0399127 C6.83761811,19.6593289 8.63545306,18.6670969 10.5905352,18.1513787 C12.6890627,17.5761936 14.9097063,17.6315177 16.9771903,18.3104929 C18.1053926,18.7272905 19.1414865,19.3613612 20.0271688,20.1770244 C20.8905279,20.9755904 21.5925956,21.9334215 22.0950542,22.9982408 C22.5231967,23.9350368 22.8247585,24.9249857 22.9917479,25.9418528 C23.1076471,26.7496632 23.2235463,27.5574735 23.2906458,28.334685 C23.4614446,30.0543419 23.5224442,31.7311604 23.5224442,33.3896195 C24.8509046,30.2807121 26.3748966,27.2596181 28.0852121,24.3445914 C30.1347976,20.9542359 32.4527813,17.6128385 35.8687572,14.8038616 C37.7042999,13.2784663 39.8846329,12.2278339 42.2188125,11.7439739 C42.8059776,11.6301596 43.4020337,11.568722 44,11.5603806 C38.4403266,2.23930682 27.287169,-2.11142675 16.911595,0.99346881 C6.53602103,4.09836437 -0.418944091,13.8679625 0.0196153246,24.7215321 C0.45817474,35.5751017 8.17854211,44.7478553 18.7705776,47 L18.9352765,47 L18.0507827,37.6428634 Z M25.4073309,9.13694954 C27.9002965,9.14710955 29.9130386,11.1828524 29.9029252,13.6839176 C29.8928117,16.1849827 27.8636724,18.2042752 25.3707067,18.1941426 C22.877741,18.18401 20.8649767,16.1482892 20.8750628,13.647224 C20.8799064,12.4461526 21.3601354,11.2962054 22.2101026,10.4503627 C23.0600699,9.60452005 24.2101491,9.13207047 25.4073309,9.13694954 Z" id="Shape"></path>
                <path d="M46.3122976,18.8383991 C45.2225378,18.183896 43.9420164,17.9001205 42.6701497,18.031265 C41.2151456,18.2604213 39.8394053,18.8336043 38.6625268,19.7009852 C35.965573,21.549384 33.56478,24.4205634 31.4664492,27.427292 C29.3517205,30.5230577 27.4568763,33.757146 25.7952847,37.1067403 C24.1380444,40.4585034 21.0756155,47.7966465 21,47.9260344 C21.5104048,47.956841 22.0145083,47.9999703 22.5312144,47.9999703 C29.9571034,48.0113977 36.9851867,44.7196766 41.6302355,39.0546222 C46.2752844,33.3895679 48.0329772,25.9662459 46.406817,18.8815284 L46.3122976,18.8383991 Z" id="Shape"></path>
            </g>
        </g>
    </g>
</svg>