<?xml version="1.0" encoding="UTF-8"?>
<svg width="199px" height="48px" viewBox="0 0 199 48" version="1.1" xmlns="http://www.w3.org/2000/svg" xmlns:xlink="http://www.w3.org/1999/xlink">
    <!-- Generator: Sketch 50.2 (55047) - http://www.bohemiancoding.com/sketch -->
    <title>V-logo</title>
    <desc>Created with Sketch.</desc>
    <defs></defs>
    <g id="Page-1" stroke="none" stroke-width="1" fill="none" fill-rule="evenodd">
        <g id="180608-Home-Desktop-v2" transform="translate(-46.000000, -27.000000)">
            <g id="V-logo" transform="translate(46.000000, 27.000000)">
                <g id="Vivayic_Logo_RGB_042518_tag">
                    <path d="M18.4257012,37.798481 C18.0980793,34.9670886 17.8189939,32.1235443 17.2668902,29.4683544 C16.7208537,26.3270886 16.1808841,25.7255696 15.0524085,25.3002532 C12.6801829,24.4131646 10.0834756,26.1812658 8.79118902,26.8982278 C7.69911585,27.5058228 6.36435976,27.1351899 5.42396341,25.9443038 C4.34697939,24.5322501 4.50936559,22.5335515 5.80012195,21.3144304 C7.27298498,19.9437335 9.0611281,18.9586072 11.0056707,18.4465823 C13.0928854,17.8755162 15.3015578,17.9304441 17.3578963,18.604557 C18.4800168,19.0183697 19.5105252,19.6478996 20.3914329,20.4577215 C21.2501379,21.2505687 21.9484208,22.2015404 22.4481707,23.2587342 C22.8740051,24.1888214 23.1739413,25.1716809 23.3400305,26.1812658 C23.4553049,26.9832911 23.5705793,27.7853165 23.6373171,28.556962 C23.8071951,30.2643038 23.8678659,31.9291139 23.8678659,33.5756962 C25.1891647,30.4890529 26.7049412,27.4895941 28.4060366,24.595443 C30.4445732,21.2293671 32.750061,17.9118987 36.147622,15.123038 C37.9732694,13.6085667 40.1418487,12.5654582 42.4634451,12.0850633 C43.0474449,11.9720641 43.6402878,11.9110665 44.2350305,11.9027848 C38.7053284,2.64846278 27.6122956,-1.67111352 17.2926547,1.41154669 C6.97301376,4.49420691 0.0555417358,14.1938412 0.491736948,24.9696843 C0.92793216,35.7455274 8.60668028,44.8525914 19.1416159,47.0886076 L19.3054268,47.0886076 L18.4257012,37.798481 Z M25.7425915,9.49670886 C28.2221179,9.50679611 30.2240096,11.5279603 30.2139507,14.0111143 C30.2038918,16.4942683 28.1856912,18.4991 25.7061647,18.4890399 C23.2266382,18.4789799 21.2247243,16.4578377 21.2347561,13.9746835 C21.2395736,12.7822134 21.7172137,11.6405015 22.5625989,10.8007162 C23.4079842,9.96093092 24.5518635,9.49186472 25.7425915,9.49670886 Z" id="Shape" fill="#D22630" fill-rule="nonzero"></path>
                    <path d="M46.9106098,18.835443 C45.8613567,18.1900097 44.6284325,17.9101665 43.4038415,18.0394937 C42.0029202,18.2654745 40.6783166,18.8307147 39.5451829,19.6860759 C36.9484756,21.5088608 34.6369207,24.3402532 32.6165854,27.3053165 C30.5804618,30.358183 28.7560494,33.5474552 27.1562195,36.8506329 C25.5605793,40.1559494 22.6119817,47.3924051 22.5391768,47.52 C23.0306098,47.5503797 23.5159756,47.5929114 24.0134756,47.5929114 C31.1633424,47.6041804 37.93019,44.3580739 42.4025812,38.7715224 C46.8749724,33.1849708 48.5673313,25.8645166 47.0016159,18.8779747 L46.9106098,18.835443 Z" id="Shape" fill="#D22630" fill-rule="nonzero"></path>
                    <polygon id="Shape" fill="#5B6770" fill-rule="nonzero" points="68.5579268 32.2997468 63.352378 32.2997468 53.1718293 5.01265823 58.783872 4.04658228 66.1310976 25.2759494 73.4115854 4.32607595 78.938689 4.32607595"></polygon>
                    <polygon id="Shape" fill="#5B6770" fill-rule="nonzero" points="83.252378 32.2997468 83.252378 4.35037975 88.5792683 4.35037975 88.5792683 32.2997468"></polygon>
                    <polygon id="Shape" fill="#5B6770" fill-rule="nonzero" points="108.097043 32.2997468 102.891494 32.2997468 92.7109451 5.01265823 98.3229878 4.04658228 105.694482 25.2759494 112.944634 4.32607595 118.477805 4.32607595"></polygon>
                    <path d="M136.27253,32.2997468 L133.627287,25.0086076 L123.161585,25.0086076 L120.637683,32.2997468 L115.395732,32.2997468 L125.776494,4.21063291 L131.424939,4.21063291 L141.563018,32.2997468 L136.27253,32.2997468 Z M128.385335,9.98886076 L124.611616,20.6582278 L132.146921,20.6582278 L128.385335,9.98886076 Z" id="Shape" fill="#5B6770" fill-rule="nonzero"></path>
                    <polygon id="Shape" fill="#5B6770" fill-rule="nonzero" points="153.296738 21.4237975 153.296738 32.2997468 147.96378 32.2997468 147.96378 21.4602532 138.329268 4.93367089 143.856372 4.04658228 150.869909 16.5691139 157.622561 4.32607595 163.313476 4.32607595"></polygon>
                    <polygon id="Shape" fill="#5B6770" fill-rule="nonzero" points="167.044726 32.2997468 167.044726 4.35037975 172.371616 4.35037975 172.371616 32.2997468"></polygon>
                    <path d="M190.415091,32.5002532 C182.358018,32.5002532 177.310213,26.8010127 177.310213,18.2096203 C177.310213,9.61822785 182.558232,3.84607595 190.372622,3.84607595 C193.087787,3.77538716 195.768156,4.47014466 198.10814,5.85113924 L197.343689,10.8698734 C195.431136,9.3366065 193.064818,8.48186189 190.615305,8.43949367 C185.725244,8.43949367 182.72811,12.1701266 182.72811,18.1610127 C182.72811,24.1518987 185.931524,27.8825316 190.821585,27.8825316 C193.336435,27.8215226 195.776079,27.0113489 197.829055,25.555443 L198.551037,30.1306329 C196.11889,31.6784688 193.296781,32.5004172 190.415091,32.5002532 Z" id="Shape" fill="#5B6770" fill-rule="nonzero"></path>
                    <polygon id="Shape" fill="#D22630" fill-rule="nonzero" points="59.2085671 45.4967089 59.2085671 37.9078481 60.6707317 37.9078481 60.6707317 44.2086076 63.1946341 44.2086076 63.3948476 45.4967089"></polygon>
                    <polygon id="Shape" fill="#D22630" fill-rule="nonzero" points="65.4273171 45.4967089 65.4273171 37.9078481 69.8259451 37.9078481 69.8259451 39.123038 66.8652134 39.123038 66.8652134 40.9032911 69.1646341 40.9032911 69.3648476 42.1549367 66.8834146 42.1549367 66.8834146 44.2450633 69.9594207 44.2450633 69.9594207 45.4602532"></polygon>
                    <path d="M77.3551829,45.5696203 L76.6332012,43.564557 L73.7634756,43.564557 L73.0718293,45.4906329 L71.6339329,45.4906329 L74.4793902,37.8713924 L76.0264939,37.8713924 L78.8052134,45.3022785 L77.3551829,45.5696203 Z M75.1953049,39.4511392 L74.1578354,42.3797468 L76.2267073,42.3797468 L75.1953049,39.4511392 Z" id="Shape" fill="#D22630" fill-rule="nonzero"></path>
                    <path d="M86.1888415,45.2962025 L84.7084756,45.5756962 L82.7306098,42.5924051 L82.0692988,42.5924051 L82.0692988,45.4967089 L80.6192683,45.4967089 L80.6192683,37.9078481 L82.9732927,37.9078481 C84.659939,37.9078481 85.6852744,38.7098734 85.6852744,40.1863291 C85.7284101,41.1616003 85.1029569,42.0410215 84.1685061,42.3189873 L86.1888415,45.2962025 Z M82.8640854,39.0744304 L82.0571646,39.0744304 L82.0571646,41.5048101 L82.7973476,41.5048101 C83.6952744,41.5048101 84.2534451,41.0794937 84.2534451,40.2896203 C84.2534451,39.4997468 83.7741463,39.0744304 82.8640854,39.0744304 Z" id="Shape" fill="#D22630" fill-rule="nonzero"></path>
                    <polygon id="Shape" fill="#D22630" fill-rule="nonzero" points="92.9778963 45.4967089 89.4104573 40.2713924 89.4104573 45.4967089 88.0635671 45.4967089 88.0635671 37.9078481 89.4347256 37.9078481 92.8262195 42.8779747 92.8262195 37.9078481 94.1731098 37.9078481 94.1731098 45.4967089"></polygon>
                    <polygon id="Shape" fill="#D22630" fill-rule="nonzero" points="96.8911585 45.4967089 96.8911585 37.9078481 98.3533232 37.9078481 98.3533232 45.4967089"></polygon>
                    <polygon id="Shape" fill="#D22630" fill-rule="nonzero" points="105.86436 45.4967089 102.290854 40.2713924 102.290854 45.4967089 100.943963 45.4967089 100.943963 37.9078481 102.315122 37.9078481 105.71875 42.8779747 105.71875 37.9078481 107.071707 37.9078481 107.071707 45.4967089"></polygon>
                    <path d="M113.144848,45.6364557 C110.718018,45.6364557 109.419665,44.0567089 109.419665,41.7113924 C109.419665,39.3660759 110.815091,37.7681013 113.120579,37.7681013 C113.93081,37.749722 114.729822,37.9602961 115.426067,38.3756962 L115.219787,39.7306329 C114.618025,39.2752762 113.88687,39.024106 113.132713,39.0136709 C111.652348,39.0136709 110.906098,40.0891139 110.906098,41.7053165 C110.906098,43.321519 111.670549,44.4151899 113.199451,44.4151899 C113.643988,44.4261031 114.083514,44.3192049 114.473537,44.1053165 L114.473537,42.4162025 L112.9325,42.4162025 L112.756555,41.2496203 L115.790091,41.2496203 L115.790091,44.8951899 C114.995678,45.3869015 114.078717,45.6438575 113.144848,45.6364557 Z" id="Shape" fill="#D22630" fill-rule="nonzero"></path>
                    <path d="M126.51061,45.5696203 L125.782561,43.564557 L122.918902,43.564557 L122.227256,45.4906329 L120.78936,45.4906329 L123.62875,37.8713924 L125.181921,37.8713924 L127.96064,45.3022785 L126.51061,45.5696203 Z M124.375,39.4572152 L123.343598,42.3858228 L125.406402,42.3858228 L124.375,39.4572152 Z" id="Shape" fill="#D22630" fill-rule="nonzero"></path>
                    <path d="M132.092317,45.5696203 C131.267874,45.5759495 130.452702,45.3952277 129.707957,45.0410127 L129.926372,43.7103797 C130.584362,44.1196193 131.336658,44.3519164 132.110518,44.3848101 C132.783963,44.3848101 133.245061,44.0627848 133.245061,43.4612658 C133.245061,42.8597468 132.97811,42.6713924 131.87997,42.1974684 C130.411738,41.5898734 129.817165,41.1098734 129.817165,39.9311392 C129.817165,38.5883544 130.848567,37.8106329 132.243994,37.8106329 C132.937831,37.7911007 133.625077,37.9500889 134.240061,38.2724051 L134.021646,39.5908861 C133.495197,39.2214077 132.874139,39.0105713 132.23186,38.9832911 C131.509878,38.9832911 131.188323,39.3356962 131.188323,39.7974684 C131.188323,40.2592405 131.431006,40.5144304 132.486677,40.9518987 C134.045915,41.5594937 134.61622,42.1306329 134.61622,43.3032911 C134.640488,44.8162025 133.554482,45.5696203 132.092317,45.5696203 Z" id="Shape" fill="#D22630" fill-rule="nonzero"></path>
                    <path d="M142.018049,45.5696203 C141.19565,45.5750321 140.382654,45.3943328 139.639756,45.0410127 L139.858171,43.7103797 C140.5157,44.1206319 141.268268,44.3530132 142.042317,44.3848101 C142.715762,44.3848101 143.17686,44.0627848 143.17686,43.4612658 C143.17686,42.8597468 142.909909,42.6713924 141.811768,42.1974684 C140.343537,41.5898734 139.748963,41.1098734 139.748963,39.9311392 C139.748963,38.5883544 140.780366,37.8106329 142.175793,37.8106329 C142.869548,37.7919124 143.556593,37.950854 144.17186,38.2724051 L143.953445,39.5908861 C143.426535,39.2223194 142.80575,39.0115757 142.163659,38.9832911 C141.43561,38.9832911 141.120122,39.3356962 141.120122,39.7974684 C141.120122,40.2592405 141.362805,40.5144304 142.412409,40.9518987 C143.971646,41.5594937 144.541951,42.1306329 144.541951,43.3032911 C144.56622,44.8162025 143.480213,45.5696203 142.018049,45.5696203 Z" id="Shape" fill="#D22630" fill-rule="nonzero"></path>
                    <polygon id="Shape" fill="#D22630" fill-rule="nonzero" points="149.978049 39.1716456 149.978049 45.4967089 148.515884 45.4967089 148.515884 39.1716456 146.265 39.1716456 146.265 37.9078481 152.150061 37.9078481 152.362409 39.1716456"></polygon>
                    <path d="M159.952317,45.2962025 L158.471951,45.5696203 L156.494085,42.5863291 L155.838841,42.5863291 L155.838841,45.4906329 L154.388811,45.4906329 L154.388811,37.9078481 L156.736768,37.9078481 C158.429482,37.9078481 159.44875,38.7098734 159.44875,40.1863291 C159.491886,41.1616003 158.866432,42.0410215 157.931982,42.3189873 L159.952317,45.2962025 Z M156.627561,39.0744304 L155.826707,39.0744304 L155.826707,41.5048101 L156.560823,41.5048101 C157.464817,41.5048101 158.022988,41.0794937 158.022988,40.2896203 C158.022988,39.4997468 157.537622,39.0744304 156.627561,39.0744304 Z" id="Shape" fill="#D22630" fill-rule="nonzero"></path>
                    <path d="M166.923384,45.5696203 L166.195335,43.564557 L163.331677,43.564557 L162.64003,45.4906329 L161.202134,45.4906329 L164.041524,37.8713924 L165.594695,37.8713924 L168.367348,45.3022785 L166.923384,45.5696203 Z M164.757439,39.4511392 L163.726037,42.3797468 L165.788841,42.3797468 L164.757439,39.4511392 Z" id="Shape" fill="#D22630" fill-rule="nonzero"></path>
                    <polygon id="Shape" fill="#D22630" fill-rule="nonzero" points="172.796311 39.1716456 172.796311 45.4967089 171.334146 45.4967089 171.334146 39.1716456 169.083262 39.1716456 169.083262 37.9078481 174.968323 37.9078481 175.174604 39.1716456"></polygon>
                    <polygon id="Shape" fill="#D22630" fill-rule="nonzero" points="177.201006 45.4967089 177.201006 37.9078481 181.605701 37.9078481 181.605701 39.123038 178.638902 39.123038 178.638902 40.9032911 180.926189 40.9032911 181.120335 42.1549367 178.638902 42.1549367 178.638902 44.2450633 181.714909 44.2450633 181.714909 45.4602532"></polygon>
                    <path d="M187.260213,45.6364557 C184.833384,45.6364557 183.541098,44.0567089 183.541098,41.7113924 C183.541098,39.3660759 184.936524,37.7681013 187.242012,37.7681013 C188.052127,37.7507051 188.850873,37.961209 189.5475,38.3756962 L189.335152,39.7306329 C188.733999,39.2741333 188.002457,39.0228303 187.248079,39.0136709 C185.767713,39.0136709 185.021463,40.0891139 185.021463,41.7053165 C185.021463,43.321519 185.791982,44.4151899 187.314817,44.4151899 C187.759447,44.4269761 188.199197,44.3200235 188.588902,44.1053165 L188.588902,42.4162025 L187.053933,42.4162025 L186.865854,41.2496203 L189.89939,41.2496203 L189.89939,44.8951899 C189.106994,45.3864093 188.192113,45.6433719 187.260213,45.6364557 Z" id="Shape" fill="#D22630" fill-rule="nonzero"></path>
                    <polygon id="Shape" fill="#D22630" fill-rule="nonzero" points="195.754116 42.5924051 195.754116 45.4967089 194.291951 45.4967089 194.291951 42.604557 191.646707 38.0718987 193.163476 37.8349367 195.086738 41.2617722 196.937195 37.9078481 198.496433 37.9078481"></polygon>
                </g>
            </g>
        </g>
    </g>
</svg>